<?xml version="1.0" encoding="UTF-8" standalone="no"?>
<svg width="14px" height="15px" viewBox="0 0 14 15" version="1.1" xmlns="http://www.w3.org/2000/svg" xmlns:xlink="http://www.w3.org/1999/xlink">
    <!-- Generator: Sketch 3.8.3 (29802) - http://www.bohemiancoding.com/sketch -->
    <title>icon-companies-2</title>
    <desc>Created with Sketch.</desc>
    <defs></defs>
    <g id="Page-1" stroke="none" stroke-width="1" fill="none" fill-rule="evenodd">
        <g id="icon-companies-2" transform="translate(-5.000000, -4.000000)">
            <g id="Page-1">
                <g id="ic_location_city_white_48px">
                    <path d="M12,25 C18.627417,25 24,19.627417 24,13 C24,6.372583 18.627417,1 12,1 C5.372583,1 0,6.372583 0,13 C0,19.627417 5.372583,25 12,25 L12,25 Z" id="Oval-1" fill-opacity="0" fill="#AAAAAA"></path>
                    <path d="M14.3333333,11.1052632 L14.3333333,6.36842105 L12,4 L9.66666667,6.36842105 L9.66666667,7.94736842 L5,7.94736842 L5,19 L19,19 L19,11.1052632 L14.3333333,11.1052632 L14.3333333,11.1052632 L14.3333333,11.1052632 Z M8.11111111,17.4210526 L6.55555556,17.4210526 L6.55555556,15.8421053 L8.11111111,15.8421053 L8.11111111,17.4210526 L8.11111111,17.4210526 L8.11111111,17.4210526 Z M8.11111111,14.2631579 L6.55555556,14.2631579 L6.55555556,12.6842105 L8.11111111,12.6842105 L8.11111111,14.2631579 L8.11111111,14.2631579 L8.11111111,14.2631579 Z M8.11111111,11.1052632 L6.55555556,11.1052632 L6.55555556,9.52631579 L8.11111111,9.52631579 L8.11111111,11.1052632 L8.11111111,11.1052632 L8.11111111,11.1052632 Z M12.7777778,17.4210526 L11.2222222,17.4210526 L11.2222222,15.8421053 L12.7777778,15.8421053 L12.7777778,17.4210526 L12.7777778,17.4210526 L12.7777778,17.4210526 Z M12.7777778,14.2631579 L11.2222222,14.2631579 L11.2222222,12.6842105 L12.7777778,12.6842105 L12.7777778,14.2631579 L12.7777778,14.2631579 L12.7777778,14.2631579 Z M12.7777778,11.1052632 L11.2222222,11.1052632 L11.2222222,9.52631579 L12.7777778,9.52631579 L12.7777778,11.1052632 L12.7777778,11.1052632 L12.7777778,11.1052632 Z M12.7777778,7.94736842 L11.2222222,7.94736842 L11.2222222,6.36842105 L12.7777778,6.36842105 L12.7777778,7.94736842 L12.7777778,7.94736842 L12.7777778,7.94736842 Z M17.4444444,17.4210526 L15.8888889,17.4210526 L15.8888889,15.8421053 L17.4444444,15.8421053 L17.4444444,17.4210526 L17.4444444,17.4210526 L17.4444444,17.4210526 Z M17.4444444,14.2631579 L15.8888889,14.2631579 L15.8888889,12.6842105 L17.4444444,12.6842105 L17.4444444,14.2631579 L17.4444444,14.2631579 L17.4444444,14.2631579 Z" id="Shape" fill="#FFFFFF"></path>
                    <polygon id="Shape" points="0 0 24 0 24 24 0 24"></polygon>
                </g>
            </g>
        </g>
    </g>
</svg>