<?xml version="1.0" encoding="UTF-8" standalone="no"?>
<svg width="14px" height="14px" viewBox="0 0 14 14" version="1.1" xmlns="http://www.w3.org/2000/svg" xmlns:xlink="http://www.w3.org/1999/xlink">
    <!-- Generator: Sketch 3.8.3 (29802) - http://www.bohemiancoding.com/sketch -->
    <title>icon-messages</title>
    <desc>Created with Sketch.</desc>
    <defs></defs>
    <g id="Page-1" stroke="none" stroke-width="1" fill="none" fill-rule="evenodd">
        <g id="icon-messages" transform="translate(-5.000000, -5.000000)">
            <g id="Page-1">
                <g id="ic_message_white_48px">
                    <circle id="Oval-1" fill-opacity="0" fill="#AAAAAA" cx="12" cy="12" r="12"></circle>
                    <path d="M17.6,5 L6.4,5 C5.63,5 5.007,5.63 5.007,6.4 L5,19 L7.8,16.2 L17.6,16.2 C18.37,16.2 19,15.57 19,14.8 L19,6.4 C19,5.63 18.37,5 17.6,5 L17.6,5 L17.6,5 Z M16.2,13.4 L7.8,13.4 L7.8,12 L16.2,12 L16.2,13.4 L16.2,13.4 L16.2,13.4 Z M16.2,11.3 L7.8,11.3 L7.8,9.9 L16.2,9.9 L16.2,11.3 L16.2,11.3 L16.2,11.3 Z M16.2,9.2 L7.8,9.2 L7.8,7.8 L16.2,7.8 L16.2,9.2 L16.2,9.2 L16.2,9.2 Z" id="Shape" fill="#FFFFFF"></path>
                    <polygon id="Shape" points="0 0 24 0 24 24 0 24"></polygon>
                </g>
            </g>
        </g>
    </g>
</svg>