<?xml version="1.0" encoding="UTF-8" standalone="no"?>
<svg width="14px" height="16px" viewBox="0 0 14 16" version="1.1" xmlns="http://www.w3.org/2000/svg" xmlns:xlink="http://www.w3.org/1999/xlink">
    <!-- Generator: Sketch 3.8.3 (29802) - http://www.bohemiancoding.com/sketch -->
    <title>icon-events</title>
    <desc>Created with Sketch.</desc>
    <defs></defs>
    <g id="Page-1" stroke="none" stroke-width="1" fill="none" fill-rule="evenodd">
        <g id="icon-events" transform="translate(-5.000000, -3.000000)">
            <g id="Page-1">
                <g id="ic_event_white_48px">
                    <circle id="Oval-1" fill-opacity="0" fill="#AAAAAA" cx="12" cy="12" r="12"></circle>
                    <path d="M15.75,12 L12,12 L12,15.75 L15.75,15.75 L15.75,12 L15.75,12 L15.75,12 Z M15,3.75 L15,5.25 L9,5.25 L9,3.75 L7.5,3.75 L7.5,5.25 L6.75,5.25 C5.9175,5.25 5.2575,5.925 5.2575,6.75 L5.25,17.25 C5.25,18.075 5.9175,18.75 6.75,18.75 L17.25,18.75 C18.075,18.75 18.75,18.075 18.75,17.25 L18.75,6.75 C18.75,5.925 18.075,5.25 17.25,5.25 L16.5,5.25 L16.5,3.75 L15,3.75 L15,3.75 L15,3.75 Z M17.25,17.25 L6.75,17.25 L6.75,9 L17.25,9 L17.25,17.25 L17.25,17.25 L17.25,17.25 Z" id="Shape" fill="#FFFFFF"></path>
                    <polygon id="Shape" points="3 3 21 3 21 21 3 21"></polygon>
                </g>
            </g>
        </g>
    </g>
</svg>