<?xml version="1.0" encoding="UTF-8" standalone="no"?>
<svg width="24px" height="21px" viewBox="0 0 24 21" version="1.1" xmlns="http://www.w3.org/2000/svg" xmlns:xlink="http://www.w3.org/1999/xlink">
    <!-- Generator: Sketch 3.8.3 (29802) - http://www.bohemiancoding.com/sketch -->
    <title>Jobs White</title>
    <desc>Created with Sketch.</desc>
    <defs></defs>
    <g id="Page-1" stroke="none" stroke-width="1" fill="none" fill-rule="evenodd">
        <g id="Jobs-White" fill="#FFFFFF">
            <path d="M24,4.81501685 L24,8.89939888 C23.84256,9.55299438 23.49372,10.153264 22.97844,10.6401573 C22.25364,11.324073 21.28764,11.7010112 20.25984,11.7010112 L13.7976,11.7010112 L13.7976,10.4575281 C13.7976,9.93205618 13.3602,9.50214607 12.82572,9.50214607 L11.17416,9.50214607 C10.63992,9.50214607 10.20264,9.93217416 10.20264,10.4575281 L10.20264,11.7010112 L3.74004,11.7010112 C2.71224,11.7010112 1.74648,11.324073 1.02144,10.6401573 C0.50568,10.1539719 0.15744,9.55323034 0,8.89987079 L0,4.81501685 C0,3.93455056 0.7332,3.21370787 1.62888,3.21370787 L22.37136,3.21370787 C23.26692,3.21370787 24,3.93455056 24,4.81501685 L24,4.81501685 Z M12.82584,13.8997584 C12.9114,13.8997584 12.9828,13.8294438 12.9828,13.7454438 L12.9828,12.5017247 L12.9828,11.7010112 L12.9828,10.4575281 C12.9828,10.3735281 12.9114,10.3027416 12.82584,10.3027416 L11.17416,10.3027416 C11.08896,10.3027416 11.01672,10.3735281 11.01672,10.4575281 L11.01672,11.7010112 L11.01672,12.5017247 L11.01672,13.7454438 C11.01672,13.8294438 11.08896,13.8997584 11.17416,13.8997584 L12.82584,13.8997584 L12.82584,13.8997584 Z M23.5428,11.2176573 C22.66488,12.0455056 21.49968,12.5018427 20.25984,12.5018427 L13.7976,12.5018427 L13.7976,13.7455618 C13.7976,14.2703258 13.3602,14.7005899 12.82572,14.7005899 L11.17416,14.7005899 C10.63992,14.7005899 10.20264,14.2704438 10.20264,13.7455618 L10.20264,12.5018427 L3.74004,12.5018427 C2.50044,12.5018427 1.335,12.0455056 0.4572,11.2176573 C0.2904,11.0601573 0.13776,10.8929831 0,10.7175506 L0,19.3876011 C0,20.2687753 0.7332,20.9890281 1.62888,20.9890281 L22.37136,20.9890281 C23.26692,20.9890281 24,20.2687753 24,19.3876011 L24,10.7175506 C23.862,10.8929831 23.70996,11.0601573 23.5428,11.2176573 L23.5428,11.2176573 Z M15.75552,0.480050562 C15.43728,0.167174157 15.02028,0.0108539326 14.60364,0.0108539326 L9.39684,0.0108539326 C8.97996,0.0108539326 8.56272,0.167174157 8.24472,0.480050562 C7.92696,0.792691011 7.76784,1.20254494 7.76784,1.6122809 L7.76784,2.41299438 L9.15204,2.41299438 L9.15204,1.6122809 C9.15204,1.56685955 9.16464,1.5004382 9.22404,1.44239326 C9.28284,1.38434831 9.35028,1.37172472 9.39684,1.37172472 L14.60376,1.37172472 C14.6496,1.37172472 14.71728,1.38434831 14.7762,1.44239326 C14.83548,1.5004382 14.84808,1.56685955 14.84808,1.6122809 L14.84808,2.41299438 L16.23228,2.41299438 L16.23228,1.6122809 C16.23216,1.20254494 16.07328,0.792808989 15.75552,0.480050562 L15.75552,0.480050562 Z" id="Shape"></path>
        </g>
    </g>
</svg>