<?xml version="1.0" encoding="UTF-8" standalone="no"?>
<svg width="22px" height="26px" viewBox="0 0 22 26" version="1.1" xmlns="http://www.w3.org/2000/svg" xmlns:xlink="http://www.w3.org/1999/xlink">
    <!-- Generator: Sketch 3.8.3 (29802) - http://www.bohemiancoding.com/sketch -->
    <title>icon-reports</title>
    <desc>Created with Sketch.</desc>
    <defs>
        <path d="M21.1436464,18.7747181 L21.1436464,22.8190122 C21.1436464,23.3588008 20.8192397,23.8236678 20.3532511,24.0333847 C20.1835672,24.1097504 19.7967073,24.1522843 19.7967073,24.1522843 L19.1069669,24.1522843 L18.8495103,24.1522843 L2.31955678,24.1522843 C1.57566284,24.1522843 0.97992116,23.5555277 0.98894731,22.8180182 L1.25026502,1.46624575 C1.25928365,0.729350954 1.86960684,0.131979695 2.61330348,0.131979695 L19.7969376,0.131979695 C20.5407043,0.131979695 21.1436464,0.729319299 21.1436464,1.46588002 L21.1436464,11.0330388" id="path-1"></path>
    </defs>
    <g id="Page-1" stroke="none" stroke-width="1" fill="none" fill-rule="evenodd">
        <g id="icon-reports">
            <g id="Page-1">
                <g id="Reports-White">
                    <g id="Paper">
                        <g id="Rectangle-74-Clipped">
                            <mask id="mask-2" fill="white">
                                <use xlink:href="#path-1"></use>
                            </mask>
                            <g id="path-1"></g>
                            <g id="Rectangle-74" mask="url(#mask-2)" stroke="#FFFFFF" stroke-width="3.07800007" fill-opacity="0" fill="#D8D8D8">
                                <path d="M21.1436464,18.7747181 L21.1436464,22.8190122 C21.1436464,23.3588008 20.8192397,23.8236678 20.3532511,24.0333847 C20.1835672,24.1097504 19.7967073,24.1522843 19.7967073,24.1522843 L19.1069669,24.1522843 L18.8495103,24.1522843 L2.31955678,24.1522843 C1.57566284,24.1522843 0.97992116,23.5555277 0.98894731,22.8180182 L1.25026502,1.46624575 C1.25928365,0.729350954 1.86960684,0.131979695 2.61330348,0.131979695 L19.7969376,0.131979695 C20.5407043,0.131979695 21.1436464,0.729319299 21.1436464,1.46588002 L21.1436464,11.0330388" id="path-1"></path>
                            </g>
                        </g>
                    </g>
                    <path d="M12.9765486,10.243528 C13.1726683,10.0987855 13.3550256,9.93445357 13.5190215,9.75360257 C13.5813605,9.68485662 13.6410463,9.61372376 13.6978263,9.54037264 C14.1176603,8.99801192 14.3786335,8.33437511 14.3786335,7.61763959 C14.3786335,5.78584845 12.8522563,4.30088832 10.9693745,4.30088832 C9.5829182,4.30088832 8.38976165,5.10604628 7.85698141,6.26195943 M7.70165442,6.66882948 C7.60956936,6.96943745 7.56011557,7.28791995 7.56011557,7.61763959 C7.56011557,8.34939928 7.83214447,9.02581083 8.26753279,9.57431896 M8.59407963,9.93307631 C9.2366527,10.5508139 10.1030136,10.9343909 10.9693745,10.9343909 C11.5137525,10.9343909 12.0581304,10.7829455 12.5469894,10.5171233" id="Pie" stroke="#FFFFFF" stroke-width="2.82736932" fill-opacity="0" fill="#D8D8D8"></path>
                    <g id="Words" transform="translate(4.156489, 14.251142)" fill="#FFFFFF">
                        <rect id="Rectangle-5" x="0" y="2.07296954" width="8.02028379" height="1.10558376" rx="0.552791878"></rect>
                        <rect id="Rectangle-5" x="0" y="5.68434189e-14" width="7.81298591" height="1.10558376" rx="0.552791878"></rect>
                        <rect id="Rectangle-5" x="0" y="6.21890863" width="10.1504478" height="1.10558376" rx="0.552791878"></rect>
                        <rect id="Rectangle-5" x="0" y="4.14593909" width="9.64292544" height="1.10558376" rx="0.552791878"></rect>
                    </g>
                    <g id="Mag" transform="translate(13.000000, 12.000000)" fill="#FFFFFF">
                        <ellipse id="Oval-1" stroke="#FFFFFF" stroke-width="0.5" fill-opacity="0" cx="3.40925896" cy="3.31675127" rx="3.40925896" ry="3.31675127"></ellipse>
                        <ellipse id="Oval-2" cx="3.62233764" cy="7.94705867" rx="0.639236054" ry="0.0697744105"></ellipse>
                        <rect id="Rectangle-10" x="3.12515404" y="8.1536802" width="0.994367196" height="5.66611675"></rect>
                        <path id="Combined-Shape"></path>
                        <rect id="Rectangle-9" x="3.40925896" y="6.49530457" width="0.42615737" height="1.10558376"></rect>
                    </g>
                </g>
            </g>
        </g>
    </g>
</svg>