<?xml version="1.0" encoding="UTF-8" standalone="no"?>
<svg width="24px" height="24px" viewBox="0 0 24 24" version="1.1" xmlns="http://www.w3.org/2000/svg" xmlns:xlink="http://www.w3.org/1999/xlink">
    <!-- Generator: Sketch 3.8.3 (29802) - http://www.bohemiancoding.com/sketch -->
    <title>ic_work_white_48px</title>
    <desc>Created with Sketch.</desc>
    <defs></defs>
    <g id="Page-1" stroke="none" stroke-width="1" fill="none" fill-rule="evenodd">
        <g id="ic_work_white_48px">
            <circle id="Oval-1" fill="#AAAAAA" cx="12" cy="12" r="12"></circle>
            <polygon id="Shape" points="0 0 24 0 24 24 0 24"></polygon>
            <path d="M20,7.20610747 L20,9.93186177 C19.89504,10.3680454 19.66248,10.7686415 19.31896,11.0935748 C18.83576,11.5499929 18.19176,11.8015465 17.50656,11.8015465 L13.1984,11.8015465 L13.1984,10.9716953 C13.1984,10.6210162 12.9068,10.3341113 12.55048,10.3341113 L11.44944,10.3341113 C11.09328,10.3341113 10.80176,10.621095 10.80176,10.9716953 L10.80176,11.8015465 L6.49336,11.8015465 C5.80816,11.8015465 5.16432,11.5499929 4.68096,11.0935748 C4.33712,10.769114 4.10496,10.3682029 4,9.9321767 L4,7.20610747 C4,6.61851925 4.4888,6.13745747 5.08592,6.13745747 L18.91424,6.13745747 C19.51128,6.13745747 20,6.61851925 20,7.20610747 L20,7.20610747 L20,7.20610747 Z M12.55056,13.2689031 C12.6076,13.2689031 12.6552,13.2219779 12.6552,13.1659196 L12.6552,12.3359109 L12.6552,11.8015465 L12.6552,10.9716953 C12.6552,10.915637 12.6076,10.8683969 12.55056,10.8683969 L11.44944,10.8683969 C11.39264,10.8683969 11.34448,10.915637 11.34448,10.9716953 L11.34448,11.8015465 L11.34448,12.3359109 L11.34448,13.1659196 C11.34448,13.2219779 11.39264,13.2689031 11.44944,13.2689031 L12.55056,13.2689031 L12.55056,13.2689031 L12.55056,13.2689031 Z M19.6952,11.4789753 C19.10992,12.0314484 18.33312,12.3359897 17.50656,12.3359897 L13.1984,12.3359897 L13.1984,13.1659984 C13.1984,13.516205 12.9068,13.8033462 12.55048,13.8033462 L11.44944,13.8033462 C11.09328,13.8033462 10.80176,13.5162838 10.80176,13.1659984 L10.80176,12.3359897 L6.49336,12.3359897 C5.66696,12.3359897 4.89,12.0314484 4.3048,11.4789753 C4.1936,11.3738661 4.09184,11.2623007 4,11.145224 L4,16.9312712 C4,17.5193319 4.4888,18 5.08592,18 L18.91424,18 C19.51128,18 20,17.5193319 20,16.9312712 L20,11.145224 C19.908,11.2623007 19.80664,11.3738661 19.6952,11.4789753 L19.6952,11.4789753 L19.6952,11.4789753 Z M14.50368,4.31312319 C14.29152,4.10432191 14.01352,4 13.73576,4 L10.26456,4 C9.98664,4 9.70848,4.10432191 9.49648,4.31312319 C9.28464,4.521767 9.17856,4.79528723 9.17856,5.06872874 L9.17856,5.6030931 L10.10136,5.6030931 L10.10136,5.06872874 C10.10136,5.03841633 10.10976,4.99408936 10.14936,4.95535247 C10.18856,4.91661558 10.23352,4.9081911 10.26456,4.9081911 L13.73584,4.9081911 C13.7664,4.9081911 13.81152,4.91661558 13.8508,4.95535247 C13.89032,4.99408936 13.89872,5.03841633 13.89872,5.06872874 L13.89872,5.6030931 L14.82152,5.6030931 L14.82152,5.06872874 C14.82144,4.79528723 14.71552,4.52184574 14.50368,4.31312319 L14.50368,4.31312319 L14.50368,4.31312319 Z" id="Shape" fill="#FFFFFF"></path>
        </g>
    </g>
</svg>