<?xml version="1.0" encoding="UTF-8" standalone="no"?>
<svg width="29px" height="31px" viewBox="0 0 29 31" version="1.1" xmlns="http://www.w3.org/2000/svg" xmlns:xlink="http://www.w3.org/1999/xlink">
    <!-- Generator: Sketch 3.8.3 (29802) - http://www.bohemiancoding.com/sketch -->
    <title>Requests White</title>
    <desc>Created with Sketch.</desc>
    <defs></defs>
    <g id="Page-1" stroke="none" stroke-width="1" fill="none" fill-rule="evenodd">
        <g id="Requests-White" transform="translate(0.000000, 1.000000)">
            <polygon id="Triangle-1" fill="#FFFFFF" transform="translate(9.750341, 21.200000) rotate(90.000000) translate(-9.750341, -21.200000) " points="18.3196314 12.3190469 18.3196314 30.0809531 1.18104985 30.0809531"></polygon>
            <polygon id="Triangle-1" fill="#FFFFFF" transform="translate(19.165981, 21.200000) scale(-1, 1) rotate(90.000000) translate(-19.165981, -21.200000) " points="27.7352718 12.3190469 27.7352718 30.0809531 10.5966903 30.0809531"></polygon>
            <path d="M14.4285056,0 L14.4285056,16.7000008" id="Line" stroke="#FFFFFF" stroke-width="1.6" stroke-linecap="square"></path>
            <polygon id="Triangle-3" fill="#FFFFFF" transform="translate(14.425414, 19.800000) scale(1, -1) translate(-14.425414, -19.800000) " points="14.4254144 16.8 18.1633437 22.8 10.687485 22.8"></polygon>
            <polygon id="Triangle-4" fill="#FFFFFF" transform="translate(22.450456, 6.400000) rotate(90.000000) translate(-22.450456, -6.400000) " points="28.3504565 0.949543551 28.3504565 11.8504564 16.5504564 11.8504564"></polygon>
            <polygon id="Triangle-4-Copy" fill="#FFFFFF" transform="translate(6.319844, 6.400000) scale(-1, 1) rotate(90.000000) translate(-6.319844, -6.400000) " points="12.219844 0.949543646 12.219844 11.8504565 0.419843824 11.8504565"></polygon>
        </g>
    </g>
</svg>