<?xml version="1.0" encoding="UTF-8" standalone="no"?>
<svg width="24px" height="24px" viewBox="0 0 24 24" version="1.1" xmlns="http://www.w3.org/2000/svg" xmlns:xlink="http://www.w3.org/1999/xlink">
    <!-- Generator: Sketch 3.8.3 (29802) - http://www.bohemiancoding.com/sketch -->
    <title>Events White</title>
    <desc>Created with Sketch.</desc>
    <defs></defs>
    <g id="Page-1" stroke="none" stroke-width="1" fill="none" fill-rule="evenodd">
        <g id="Events-White" fill="#FFFFFF">
            <path d="M0,1.20661126 C0,0.540218263 0.546366692,0 1.20661126,0 L22.7933887,0 C23.4597817,0 24,0.546366692 24,1.20661126 L24,22.7933887 C24,23.4597817 23.4536333,24 22.7933887,24 L1.20661126,24 C0.540218263,24 0,23.4536333 0,22.7933887 L0,1.20661126 Z M0,5.85 L24,5.85 L24,6.15 L0,6.15 L0,5.85 Z M6.075,3.9 C6.53063492,3.9 6.9,3.53063492 6.9,3.075 C6.9,2.61936508 6.53063492,2.25 6.075,2.25 C5.61936508,2.25 5.25,2.61936508 5.25,3.075 C5.25,3.53063492 5.61936508,3.9 6.075,3.9 Z M18.075,3.9 C18.5306349,3.9 18.9,3.53063492 18.9,3.075 C18.9,2.61936508 18.5306349,2.25 18.075,2.25 C17.6193651,2.25 17.25,2.61936508 17.25,3.075 C17.25,3.53063492 17.6193651,3.9 18.075,3.9 Z M11.5401573,18.45 L5.95031351,18.45 L5.95031351,17.6707031 L8.74523538,14.5652344 C9.00304917,14.2800767 9.21691422,14.0281261 9.38683695,13.809375 C9.55675967,13.5906239 9.69152395,13.3904306 9.79113382,13.2087891 C9.89074369,13.0271475 9.96007894,12.8572274 9.99914163,12.6990234 C10.0382043,12.5408195 10.0577354,12.3796883 10.0577354,12.215625 C10.0577354,12.0046864 10.0245326,11.8064462 9.95812601,11.6208984 C9.89171943,11.4353506 9.79601726,11.2742194 9.67101663,11.1375 C9.54601601,11.0007806 9.39172068,10.8923832 9.20812601,10.8123047 C9.02453134,10.7322262 8.81359595,10.6921875 8.57531351,10.6921875 C8.28624956,10.6921875 8.03527551,10.7351558 7.82238382,10.8210938 C7.60949213,10.9070317 7.43273609,11.0261711 7.29211038,11.1785156 C7.15148468,11.3308601 7.04601699,11.5134755 6.97570413,11.7263672 C6.90539128,11.9392589 6.87023538,12.1746081 6.87023538,12.4324219 L5.78625101,12.4324219 C5.78625101,12.0730451 5.84582073,11.7332047 5.96496195,11.4128906 C6.08410317,11.0925765 6.26085921,10.8132824 6.49523538,10.575 C6.72961156,10.3367176 7.02062427,10.1482429 7.36828226,10.0095703 C7.71594025,9.87089774 8.11827997,9.8015625 8.57531351,9.8015625 C8.97765927,9.8015625 9.33800723,9.85624945 9.6563682,9.965625 C9.97472916,10.0750005 10.2442577,10.2302724 10.4649619,10.4314453 C10.6856662,10.6326182 10.8546098,10.8738267 10.9717979,11.1550781 C11.088986,11.4363295 11.1475791,11.7468733 11.1475791,12.0867188 C11.1475791,12.33672 11.1046108,12.5886706 11.0186729,12.8425781 C10.932735,13.0964856 10.8175017,13.3494128 10.6729698,13.6013672 C10.5284378,13.8533216 10.3585176,14.1033191 10.1632041,14.3513672 C9.96789066,14.5994153 9.76281458,14.8425769 9.54796976,15.0808594 L7.25695413,17.5652344 L11.5401573,17.5652344 L11.5401573,18.45 Z M14.2647666,13.6570313 L15.0382041,13.6570313 C15.3194555,13.6570313 15.5655468,13.6199222 15.7764854,13.5457031 C15.9874239,13.471484 16.1632034,13.368946 16.3038291,13.2380859 C16.4444548,13.1072259 16.5499225,12.9529306 16.6202354,12.7751953 C16.6905482,12.59746 16.7257041,12.4031261 16.7257041,12.1921875 C16.7257041,11.7039038 16.6026585,11.3318372 16.3565635,11.0759766 C16.1104685,10.8201159 15.7354723,10.6921875 15.2315635,10.6921875 C15.0010936,10.6921875 14.7911348,10.7263668 14.6016807,10.7947266 C14.4122266,10.8630863 14.2501189,10.9607416 14.1153526,11.0876953 C13.9805863,11.2146491 13.8760951,11.3689444 13.801876,11.5505859 C13.7276569,11.7322275 13.6905479,11.9343739 13.6905479,12.1570313 L12.6065635,12.1570313 C12.6065635,11.8289046 12.6690629,11.5222671 12.7940635,11.2371094 C12.9190641,10.9519517 13.0967967,10.7029308 13.3272666,10.4900391 C13.5577365,10.2771474 13.834101,10.1091803 14.1563682,9.98613281 C14.4786354,9.86308532 14.8370303,9.8015625 15.2315635,9.8015625 C15.6182842,9.8015625 15.9698432,9.85331979 16.286251,9.95683594 C16.6026588,10.0603521 16.8731639,10.2126943 17.0977744,10.4138672 C17.3223849,10.6150401 17.4971879,10.8660141 17.6221885,11.1667969 C17.7471891,11.4675796 17.8096885,11.8171855 17.8096885,12.215625 C17.8096885,12.3757821 17.7833216,12.5437491 17.7305869,12.7195313 C17.6778523,12.8953134 17.597775,13.0671867 17.4903526,13.2351563 C17.3829302,13.4031258 17.2442597,13.5603508 17.0743369,13.7068359 C16.9044142,13.853321 16.7022678,13.9753901 16.4678916,14.0730469 C16.749143,14.1628911 16.9844922,14.281054 17.1739463,14.4275391 C17.3634004,14.5740242 17.5147661,14.7371085 17.6280479,14.9167969 C17.7413297,15.0964853 17.821407,15.2859365 17.8682823,15.4851563 C17.9151575,15.684376 17.9385948,15.8796865 17.9385948,16.0710938 C17.9385948,16.4695332 17.8702361,16.8240219 17.7335166,17.1345703 C17.5967972,17.4451187 17.407346,17.7058583 17.1651573,17.9167969 C16.9229685,18.1277354 16.6378151,18.2888666 16.3096885,18.4001953 C15.9815619,18.511524 15.6241436,18.5671875 15.2374229,18.5671875 C14.8663273,18.5671875 14.5167214,18.5154302 14.1885948,18.4119141 C13.8604681,18.3083979 13.5733616,18.1560557 13.3272666,17.9548828 C13.0811717,17.7537099 12.8868377,17.5056655 12.7442588,17.2107422 C12.60168,16.9158188 12.5303916,16.5789081 12.5303916,16.2 L13.6202354,16.2 C13.6202354,16.4226574 13.6573444,16.6248038 13.7315635,16.8064453 C13.8057826,16.9880868 13.9132034,17.1443353 14.0538291,17.2751953 C14.1944548,17.4060553 14.364375,17.5066403 14.5635948,17.5769531 C14.7628145,17.647266 14.9874216,17.6824219 15.2374229,17.6824219 C15.4874241,17.6824219 15.7120313,17.6501956 15.911251,17.5857422 C16.1104708,17.5212887 16.2803909,17.4226569 16.4210166,17.2898438 C16.5616423,17.1570306 16.6690631,16.9910166 16.7432823,16.7917969 C16.8175014,16.5925771 16.8546104,16.3601576 16.8546104,16.0945313 C16.8546104,15.8289049 16.8116421,15.5984385 16.7257041,15.403125 C16.6397662,15.2078115 16.5176971,15.0466803 16.3594932,14.9197266 C16.2012893,14.7927728 16.0108615,14.6980472 15.7882041,14.6355469 C15.5655468,14.5730466 15.3155493,14.5417969 15.0382041,14.5417969 L14.2647666,14.5417969 L14.2647666,13.6570313 Z" id="Combined-Shape"></path>
        </g>
    </g>
</svg>