<?xml version="1.0" encoding="UTF-8" standalone="no"?>
<svg width="24px" height="24px" viewBox="0 0 24 24" version="1.1" xmlns="http://www.w3.org/2000/svg" xmlns:xlink="http://www.w3.org/1999/xlink">
    <!-- Generator: Sketch 3.8.3 (29802) - http://www.bohemiancoding.com/sketch -->
    <title>ic_supervisor_account_white_48px (1)</title>
    <desc>Created with Sketch.</desc>
    <defs></defs>
    <g id="Page-1" stroke="none" stroke-width="1" fill="none" fill-rule="evenodd">
        <g id="ic_supervisor_account_white_48px-(1)">
            <circle id="Oval-1" fill="#AAAAAA" cx="12" cy="12" r="12"></circle>
            <polygon id="Shape" points="0 0 24 0 24 24 0 24"></polygon>
            <path d="M15.6,11.5 C16.704,11.5 17.592,10.62 17.592,9.53571429 C17.592,8.45142857 16.704,7.57142857 15.6,7.57142857 C14.496,7.57142857 13.6,8.45142857 13.6,9.53571429 C13.6,10.62 14.496,11.5 15.6,11.5 L15.6,11.5 Z M9.6,10.7142857 C10.928,10.7142857 11.992,9.66142857 11.992,8.35714286 C11.992,7.05285714 10.928,6 9.6,6 C8.272,6 7.2,7.05285714 7.2,8.35714286 C7.2,9.66142857 8.272,10.7142857 9.6,10.7142857 L9.6,10.7142857 Z M15.6,13.0714286 C14.136,13.0714286 11.2,13.7942857 11.2,15.2321429 L11.2,17 L20,17 L20,15.2321429 C20,13.7942857 17.064,13.0714286 15.6,13.0714286 L15.6,13.0714286 Z M9.6,12.2857143 C7.736,12.2857143 4,13.205 4,15.0357143 L4,17 L9.6,17 L9.6,15.2321429 C9.6,14.5642857 9.864,13.3935714 11.496,12.5057143 C10.8,12.3642857 10.128,12.2857143 9.6,12.2857143 L9.6,12.2857143 Z" id="Shape" fill="#FFFFFF"></path>
        </g>
    </g>
</svg>