<?xml version="1.0" encoding="UTF-8" standalone="no"?>
<svg width="20px" height="20px" viewBox="0 0 20 20" version="1.1" xmlns="http://www.w3.org/2000/svg" xmlns:xlink="http://www.w3.org/1999/xlink">
    <!-- Generator: Sketch 3.8.3 (29802) - http://www.bohemiancoding.com/sketch -->
    <title>icon-comment</title>
    <desc>Created with Sketch.</desc>
    <defs></defs>
    <g id="Page-1" stroke="none" stroke-width="1" fill="none" fill-rule="evenodd">
        <g id="icon-comment" transform="translate(-2.000000, -2.000000)">
            <path d="M21.99,4 C21.99,2.9 21.1,2 20,2 L4,2 C2.9,2 2,2.9 2,4 L2,16 C2,17.1 2.9,18 4,18 L18,18 L22,22 L21.99,4 L21.99,4 Z M18,14 L6,14 L6,12 L18,12 L18,14 L18,14 Z M18,11 L6,11 L6,9 L18,9 L18,11 L18,11 Z M18,8 L6,8 L6,6 L18,6 L18,8 L18,8 Z" id="Shape" fill="#555555"></path>
            <polygon id="Shape" points="0 0 24 0 24 24 0 24"></polygon>
        </g>
    </g>
</svg>