<?xml version="1.0" encoding="UTF-8" standalone="no"?>
<svg width="42px" height="42px" viewBox="0 0 42 42" version="1.1" xmlns="http://www.w3.org/2000/svg" xmlns:xlink="http://www.w3.org/1999/xlink">
    <!-- Generator: Sketch 3.8.3 (29802) - http://www.bohemiancoding.com/sketch -->
    <title>Page 1</title>
    <desc>Created with Sketch.</desc>
    <defs></defs>
    <g id="Page-1" stroke="none" stroke-width="1" fill="none" fill-rule="evenodd">
        <g transform="translate(0.000000, -4.000000)" id="Fill-1" fill="#777777">
            <path d="M25.4360816,11.7714286 C27.8674286,14.2027755 29.2075102,17.4393469 29.2075102,20.8777143 C29.2075102,24.3180408 27.8674286,27.5526531 25.4360816,29.9859592 C23.0047347,32.4173061 19.7681633,33.7573878 16.3297959,33.7573878 C12.8894694,33.7573878 9.65485714,32.4173061 7.22155102,29.9859592 C4.79020408,27.5526531 3.45012245,24.3180408 3.45012245,20.8777143 C3.45012245,17.4393469 4.79020408,14.2027755 7.22155102,11.7714286 C9.65485714,9.34008163 12.8894694,8 16.3297959,8 C19.7681633,8 23.0047347,9.34008163 25.4360816,11.7714286 L25.4360816,11.7714286 Z M30.0538776,29.643102 C31.6604082,27.1137959 32.6047347,24.1142857 32.6047347,20.8894694 C32.6047347,11.8791837 25.3067755,4.57142857 16.3082449,4.57142857 C7.296,4.57142857 0,11.8791837 0,20.8894694 C0,29.8997551 7.296,37.2075102 16.2964898,37.2075102 C19.5644082,37.2075102 22.6070204,36.2435918 25.1578776,34.592 L25.8964898,34.0786939 L37.5320816,45.7142857 L41.1428571,42.0388571 L29.5190204,30.4032653 L30.0538776,29.643102 Z"></path>
        </g>
    </g>
</svg>